#!OML:ASF H:\LiuWeirdWalks\Patient Classification 1\Patient 1\Session 1\male.ASF
:FULLY-SPECIFIED
:DEGREES
507
root -0.403445 17.9696 -20.5746 3.92044 9.81706 8.20758
lowerback 8.48697 -2.6007 2.46678
upperback 2.32241 -3.07749 5.07206
thorax -2.19294 -1.53303 4.19312
lowerneck -21.8981 -0.0212907 7.55576
upperneck 26.132 2.20593 -16.4727
head 12.6239 -0.44044 -7.40262
rclavicle -3.26007e-014 6.04305e-014
rhumerus -19.2764 -27.223 -12.1053
rradius 31.6094
rwrist -3.58872
rhand -19.851 -4.99042
rfingers 7.12502
rthumb 6.48365 -34.8712
lclavicle -3.26007e-014 6.04305e-014
lhumerus -16.5746 24.7382 17.4473
lradius 33.5953
lwrist -2.21994
lhand -15.5087 3.96971
lfingers 7.12502
lthumb 10.6741 33.6786
rfemur -21.3359 1.81695 11.0687
rtibia 39.5661
rfoot -12.0023 -26.914
rtoes 1.60309
lfemur -1.91093 -0.913452 -17.6277
ltibia 49.9901
lfoot 12.8357 -2.30937
ltoes -5.29914
508
root -0.401478 17.9749 -20.5038 3.70591 9.95442 8.31659
lowerback 8.47431 -2.62875 2.71272
upperback 2.3025 -3.08714 5.24054
thorax -2.20944 -1.53771 4.23299
lowerneck -21.7256 -0.195039 7.28941
upperneck 26.0413 2.15503 -16.8334
head 12.5513 -0.530189 -7.49838
rclavicle 5.48646e-014 -3.49861e-014
rhumerus -19.338 -26.8316 -12.5823
rradius 31.5465
rwrist -3.3965
rhand -19.9725 -5.01751
rfingers 7.12502
rthumb 6.36636 -34.9018
lclavicle 5.48646e-014 -3.49861e-014
lhumerus -16.7194 24.2726 17.4205
lradius 33.6597
lwrist -2.28186
lhand -15.5731 3.83043
lfingers 7.12502
lthumb 10.6119 33.5425
rfemur -20.7077 1.88212 11.0207
rtibia 39.4507
rfoot -12.1636 -27.1183
rtoes 1.50128
lfemur -2.22334 -0.801629 -17.6296
ltibia 50.5225
lfoot 12.0061 -2.0634
ltoes -5.58474
509
root -0.399339 17.9805 -20.4341 3.49776 10.0995 8.41365
lowerback 8.43424 -2.66311 2.97281
upperback 2.29023 -3.10624 5.40496
thorax -2.20332 -1.54718 4.25996
lowerneck -21.5501 -0.375295 6.9682
upperneck 25.9588 2.09079 -17.1189
head 12.478 -0.62158 -7.5546
rclavicle -3.18055e-015 -4.45278e-014
rhumerus -19.3532 -26.3877 -13.1119
rradius 31.4235
rwrist -3.11074
rhand -20.0679 -5.04553
rfingers 7.12502
rthumb 6.27425 -34.9326
lclavicle -3.18055e-015 -4.45278e-014
lhumerus -16.8562 23.7813 17.4463
lradius 33.6961
lwrist -2.36769
lhand -15.6211 3.74979
lfingers 7.12502
lthumb 10.5657 33.4642
rfemur -20.0798 1.89751 10.9824
rtibia 39.3194
rfoot -12.3456 -27.2667
rtoes 1.39002
lfemur -2.54915 -0.697972 -17.6215
ltibia 51.017
lfoot 11.1821 -1.76339
ltoes -5.8553
510
root -0.396597 17.986 -20.3667 3.30195 10.224 8.51918
lowerback 8.39873 -2.69296 3.23878
upperback 2.27523 -3.11922 5.54652
thorax -2.20454 -1.55355 4.25953
lowerneck -21.3634 -0.612746 6.4897
upperneck 25.9191 1.95057 -17.2273
head 12.4037 -0.741046 -7.52198
rclavicle -4.29375e-014 6.36111e-014
rhumerus -19.3483 -25.8772 -13.6943
rradius 31.2528
rwrist -2.73466
rhand -20.0955 -5.03772
rfingers 7.12502
rthumb 6.24761 -34.9256
lclavicle -4.29375e-014 6.36111e-014
lhumerus -16.9599 23.3059 17.5148
lradius 33.6869
lwrist -2.48538
lhand -15.6234 3.65732
lfingers 7.12502
lthumb 10.5634 33.3719
rfemur -19.4742 1.86675 10.9251
rtibia 39.1834
rfoot -12.5374 -27.3394
rtoes 1.26547
lfemur -2.89356 -0.581622 -17.6337
ltibia 51.473
lfoot 10.3628 -1.41615
ltoes -6.1429
511
root -0.393743 17.9912 -20.3012 3.11497 10.3301 8.63601
lowerback 8.36764 -2.72302 3.50273
upperback 2.26277 -3.13325 5.6676
thorax -2.20661 -1.56042 4.23914
lowerneck -21.2263 -0.748963 6.23773
upperneck 25.8662 1.91457 -17.4827
head 12.355 -0.809732 -7.57755
rclavicle -2.46493e-014 -6.36111e-015
rhumerus -19.3049 -25.3316 -14.3294
rradius 31.04
rwrist -2.2758
rhand -20.0381 -4.98756
rfingers 7.12502
rthumb 6.30303 -34.8738
lclavicle -2.46493e-014 -6.36111e-015
lhumerus -17.0381 22.879 17.6118
lradius 33.6266
lwrist -2.65289
lhand -15.5897 3.58437
lfingers 7.12502
lthumb 10.5959 33.2972
rfemur -18.8887 1.79522 10.8484
rtibia 39.051
rfoot -12.7483 -27.3481
rtoes 1.14062
lfemur -3.24806 -0.459216 -17.6674
ltibia 51.8867
lfoot 9.53551 -1.03142
ltoes -6.40741
512
root -0.39097 17.9957 -20.2379 2.94224 10.4 8.76653
lowerback 8.34151 -2.75134 3.74803
upperback 2.24591 -3.14656 5.77282
thorax -2.21602 -1.56694 4.21305
lowerneck -21.1182 -0.841234 6.0756
upperneck 25.813 1.92612 -17.7989
head 12.3213 -0.855978 -7.66908
rclavicle 4.6118e-014 -4.13472e-014
rhumerus -19.215 -24.7517 -15.0101
rradius 30.7951
rwrist -1.72147
rhand -19.8738 -4.86235
rfingers 7.12502
rthumb 6.46164 -34.7438
lclavicle 4.6118e-014 -4.13472e-014
lhumerus -17.1246 22.5066 17.7185
lradius 33.542
lwrist -2.81531
lhand -15.4993 3.51887
lfingers 7.12502
lthumb 10.6832 33.2273
rfemur -18.3408 1.70809 10.7492
rtibia 38.93
rfoot -12.968 -27.3043
rtoes 1.02051
lfemur -3.61482 -0.312399 -17.7234
ltibia 52.258
lfoot 8.74208 -0.626868
ltoes -6.55368
513
root -0.388463 17.9997 -20.1759 2.77751 10.4309 8.89874
lowerback 8.32081 -2.77157 3.98989
upperback 2.22671 -3.14953 5.8596
thorax -2.23225 -1.56837 4.16897
lowerneck -21.0226 -0.903256 5.99704
upperneck 25.743 1.96187 -18.1615
head 12.2887 -0.888255 -7.79105
rclavicle -6.20208e-014 -3.18055e-015
rhumerus -19.1144 -24.1927 -15.7056
rradius 30.5273
rwrist -1.09725
rhand -19.5983 -4.63272
rfingers 7.12502
rthumb 6.72762 -34.5058
lclavicle -6.20208e-014 -3.18055e-015
lhumerus -17.2024 22.1637 17.833
lradius 33.4576
lwrist -2.91324
lhand -15.3313 3.47849
lfingers 7.12502
lthumb 10.8452 33.1785
rfemur -17.826 1.62255 10.6445
rtibia 38.8226
rfoot -13.1747 -27.2278
rtoes 0.876371
lfemur -3.98135 -0.135222 -17.7839
ltibia 52.5802
lfoot 7.98108 -0.221946
ltoes -6.52148
514
root -0.386642 18.0032 -20.1151 2.62437 10.4184 9.03381
lowerback 8.29399 -2.78053 4.22096
upperback 2.21542 -3.14023 5.92942
thorax -2.23774 -1.56374 4.11128
lowerneck -20.917 -0.97156 5.90614
upperneck 25.6447 1.97682 -18.4861
head 12.2389 -0.925253 -7.8948
rclavicle 2.62396e-014 3.81667e-014
rhumerus -19.004 -23.6058 -16.4289
rradius 30.2901
rwrist -0.592297
rhand -19.3094 -4.42829
rfingers 7.12502
rthumb 7.00652 -34.2923
lclavicle 2.62396e-014 3.81667e-014
lhumerus -17.2532 21.9413 17.9504
lradius 33.3567
lwrist -2.97695
lhand -15.0884 3.41972
lfingers 7.12502
lthumb 11.0795 33.1073
rfemur -17.3517 1.54908 10.5354
rtibia 38.7305
rfoot -13.3773 -27.1312
rtoes 0.736477
lfemur -4.35177 0.0812566 -17.8455
ltibia 52.8484
lfoot 7.26749 0.168076
ltoes -6.50558
515
root -0.3853 18.0064 -20.055 2.4843 10.3665 9.18502
lowerback 8.25186 -2.779 4.41597
upperback 2.20226 -3.12195 5.98855
thorax -2.23566 -1.55468 4.06083
lowerneck -20.824 -0.995977 5.89752
upperneck 25.5583 2.03574 -18.8403
head 12.2045 -0.937726 -8.02167
rclavicle 1.82882e-014 0
rhumerus -18.8834 -23.0514 -17.1425
rradius 30.0629
rwrist -0.122346
rhand -18.9988 -4.19454
rfingers 7.12502
rthumb 7.30634 -34.0484
lclavicle 1.82882e-014 0
lhumerus -17.3086 21.7866 18.0725
lradius 33.2581
lwrist -3.02562
lhand -14.8421 3.34836
lfingers 7.12502
lthumb 11.3171 33.023
rfemur -16.9115 1.49221 10.4079
rtibia 38.6519
rfoot -13.5711 -27.0268
rtoes 0.59504
lfemur -4.71694 0.328592 -17.9237
ltibia 53.0548
lfoot 6.61134 0.547171
ltoes -6.32049
516
root -0.384442 18.0093 -19.9953 2.35129 10.2803 9.35944
lowerback 8.20742 -2.76084 4.57785
upperback 2.19326 -3.08592 6.02706
thorax -2.22795 -1.53679 4.00511
lowerneck -20.7258 -0.998131 5.94035
upperneck 25.4517 2.09995 -19.1752
head 12.1617 -0.939098 -8.14732
rclavicle -3.89618e-014 3.18055e-014
rhumerus -18.7904 -22.52 -17.8347
rradius 29.877
rwrist 0.230304
rhand -18.722 -3.99796
rfingers 7.12502
rthumb 7.57348 -33.8424
lclavicle -3.89618e-014 3.18055e-014
lhumerus -17.3293 21.7154 18.204
lradius 33.1579
lwrist -3.0774
lhand -14.6442 3.234
lfingers 7.12502
lthumb 11.5079 32.8981
rfemur -16.4946 1.44892 10.2554
rtibia 38.5869
rfoot -13.7535 -26.9176
rtoes 0.444836
lfemur -5.06708 0.606379 -18.0252
ltibia 53.1948
lfoot 6.00814 0.905843
ltoes -6.13889
517
root -0.384018 18.0118 -19.9364 2.22385 10.1713 9.54547
lowerback 8.1677 -2.73693 4.71056
upperback 2.1886 -3.04512 6.05794
thorax -2.21725 -1.51652 3.95733
lowerneck -20.7266 -0.873092 6.23184
upperneck 25.3861 2.31005 -19.6578
head 12.1851 -0.870831 -8.37057
rclavicle -1.59028e-014 9.54166e-015
rhumerus -18.6845 -22.0205 -18.5182
rradius 29.7305
rwrist 0.461107
rhand -18.5324 -3.87185
rfingers 7.12502
rthumb 7.75651 -33.7096
lclavicle -1.59028e-014 9.54166e-015
lhumerus -17.3506 21.7167 18.3325
lradius 33.0694
lwrist -3.13663
lhand -14.5354 3.13535
lfingers 7.12502
lthumb 11.6129 32.7936
rfemur -16.0972 1.42296 10.0921
rtibia 38.5336
rfoot -13.9314 -26.8169
rtoes 0.30171
lfemur -5.40366 0.905902 -18.1356
ltibia 53.2718
lfoot 5.46645 1.237
ltoes -5.92922
518
root -0.383355 18.0138 -19.8785 2.10381 10.0258 9.76576
lowerback 8.14622 -2.70384 4.7969
upperback 2.18762 -2.99535 6.07535
thorax -2.21138 -1.4918 3.92128
lowerneck -20.7378 -0.782644 6.40836
upperneck 25.3426 2.47802 -20.019
head 12.2109 -0.819331 -8.53062
rclavicle 1.11319e-014 3.18055e-015
rhumerus -18.5606 -21.6188 -19.1708
rradius 29.5989
rwrist 0.676412
rhand -18.3839 -3.74565
rfingers 7.12502
rthumb 7.89986 -33.578
lclavicle 1.11319e-014 3.18055e-015
lhumerus -17.3877 21.7496 18.4554
lradius 33.0083
lwrist -3.1876
lhand -14.5114 3.00784
lfingers 7.12502
lthumb 11.636 32.6647
rfemur -15.7219 1.40716 9.88783
rtibia 38.4933
rfoot -14.1111 -26.7054
rtoes 0.174377
lfemur -5.72519 1.23829 -18.2875
ltibia 53.2902
lfoot 4.97772 1.54548
ltoes -5.71959
519
root -0.38333 18.0147 -19.8216 1.97566 9.84329 9.96098
lowerback 8.15378 -2.66098 4.88176
upperback 2.18546 -2.92997 6.09707
thorax -2.22292 -1.45944 3.8907
lowerneck -20.7693 -0.639919 6.70597
upperneck 25.2634 2.69519 -20.4529
head 12.2399 -0.741488 -8.7364
rclavicle 4.37326e-014 2.8625e-014
rhumerus -18.42 -21.3287 -19.7901
rradius 29.479
rwrist 0.871917
rhand -18.3152 -3.65456
rfingers 7.12502
rthumb 7.96613 -33.4844
lclavicle 4.37326e-014 2.8625e-014
lhumerus -17.4168 21.8309 18.5737
lradius 32.9489
lwrist -3.25749
lhand -14.5713 2.90964
lfingers 7.12502
lthumb 11.5782 32.5698
rfemur -15.3633 1.4347 9.71628
rtibia 38.464
rfoot -14.2934 -26.6135
rtoes 0.0649506
lfemur -6.0316 1.61612 -18.4059
ltibia 53.2642
lfoot 4.48409 1.81397
ltoes -5.64598
